<svg viewBox="0 0 35 35" fill="currentColor" xmlns="http://www.w3.org/2000/svg" aria-hidden="true" focusable="false"><path d="m0 0h35v35h-35z" fill="none"/> <path d="m32 13v14h-1v-14c0-2.2061-1.7944-4-4-4h-19c-2.2056 0-4 1.7939-4 4v14h-1v-14c0-2.7568 2.2432-5 5-5h19c2.7568 0 5 2.2432 5 5zm-23.0999 3.025c1.1046 0 2-.8954 2-2s-.8954-2-2-2-2 .8954-2 2 .8954 2 2 2zm0 1c-1.1046 0-2 .8954-2 2s.8954 2 2 2 2-.8954 2-2-.8954-2-2-2zm7.6296-.5c0 .7594-.6156 1.375-1.375 1.375s-1.375-.6156-1.375-1.375.6156-1.375 1.375-1.375 1.375.6157 1.375 1.375zm-.8 0c0-.317-.2579-.575-.575-.575s-.575.2579-.575.575.2579.575.575.575.575-.2579.575-.575zm-5.075 0c0 .2762.2239.5.5.5s.5-.2238.5-.5-.2238-.5-.5-.5-.5.2239-.5.5zm2.3453-2.525v5c0 2.2061-1.7944 4-4 4s-4-1.7939-4-4v-5c0-2.2061 1.7944-4 4-4s4 1.7939 4 4zm-1 0c0-1.6543-1.3457-3-3-3s-3 1.3457-3 3v5c0 1.6543 1.3457 3 3 3s3-1.3457 3-3z"/></svg>
