<svg viewBox="0 0 23 35" fill="currentColor" xmlns="http://www.w3.org/2000/svg" aria-hidden="true" focusable="false"> <path d="m0 0h23v35h-23z" fill="none"/> <path d="m17.9999 13.2598h.0547v2.4453h-1.5068v-.0547c.4443-.7969.9736-1.6543 1.4521-2.3906zm-6.119 7.4354-.5449 1.6934h1.1377l-.5449-1.6934zm11.1191-10.1951v14c0 2.4814-2.0186 4.5-4.5 4.5h-14c-2.4814 0-4.5-2.0186-4.5-4.5v-14c0-2.4814 2.0186-4.5 4.5-4.5h14c2.4814 0 4.5 2.0186 4.5 4.5zm-16.9171 1.6582c0 .0527.0088.1074.0127.125.0215.0039.0557.0078.0898.0078.3076 0 .6924-.2051.9189-.4824.209-.252.3545-.5977.3545-.9434 0-.0488-.0049-.0996-.0127-.1367-.3379.0117-.748.2246-.9912.5156-.1924.2188-.3721.5645-.3721.9141zm-.9736 5.3418c.418 0 .6064-.2773 1.127-.2773.5264 0 .6455.2676 1.1074.2676.4609 0 .7646-.418 1.0508-.832.3242-.4746.4609-.9355.4658-.9609-.0264-.0098-.9062-.3633-.9062-1.373 0-.8672.6924-1.2559.7305-1.2852-.4521-.6582-1.1494-.6758-1.3408-.6758-.5127 0-.9277.3125-1.1924.3125-.2822 0-.6582-.2949-1.1025-.2949-.8418 0-1.7002.7012-1.7002 2.0117 0 .8262.3203 1.6875.709 2.248.3379.4746.6328.8594 1.0518.8594zm4.5948 2.4422h-.8311l-1.2158 3.1172h-.0479l-1.2178-3.1172h-.8311v4.0518h.6543v-2.8809h.0469l1.123 2.8809h.4941l1.123-2.8809h.0508v2.8809h.6514v-4.0518zm.0751-2.532h.9199v-3.3574h.0684l1.2646 3.3574h.6455l1.2656-3.3574h.0684v3.3574h.9189v-4.9316h-1.1826l-1.3604 3.6094h-.0615l-1.3633-3.6094h-1.1836v4.9316zm3.9718 6.5838-1.4375-4.0518h-.8174l-1.4375 4.0518h.7578l.3369-1.0469h1.5l.3389 1.0469zm2.333-2.0215v-.0088l1.3555-2.0215h-.8145l-.9375 1.5244h-.0312l-.9404-1.5244h-.8564l1.3115 2.002v.0088l-1.3223 2.041h.792l.957-1.4912h.0254l.957 1.4912h.8369zm3.578-6.2947h-.6426v-3.1992h-1.4492c-.6562 1.0117-1.3262 2.1055-1.9521 3.2148v.8105h2.417v.9062h.9844v-.9062h.6426v-.8262z"/> </svg>
