<svg viewBox="0 0 27 35" fill="currentColor" xmlns="http://www.w3.org/2000/svg" aria-hidden="true" focusable="false"> <path d="m0 0h27v35h-27z" fill="none"/> <path d="m21.8337 14.0687c.0262-.27.0413-.5423.0413-.8187a8.375 8.375 0 0 0 -16.75 0c0 .2764.0151.5491.0413.8187a8.3713 8.3713 0 1 0 8.3337 14.3886 8.37 8.37 0 1 0 8.3337-14.3886zm-15.7087-.8187a7.375 7.375 0 0 1 14.75 0c0 .1572-.0139.311-.0237.4658a8.3148 8.3148 0 0 0 -7.3513 1.3269 8.3148 8.3148 0 0 0 -7.3513-1.3269c-.0098-.1548-.0237-.3086-.0237-.4658zm9.75 8.5a7.3478 7.3478 0 0 1 -2.375 5.4056 7.3478 7.3478 0 0 1 -2.375-5.4056c0-.1572.0139-.311.0237-.4658a8.2816 8.2816 0 0 0 4.7026 0c.0098.1548.0237.3086.0237.4658zm-2.375-1.125a7.3454 7.3454 0 0 1 -2.2271-.3455 7.3652 7.3652 0 0 1 2.2271-3.9351 7.3652 7.3652 0 0 1 2.2271 3.9356 7.3454 7.3454 0 0 1 -2.2271.345zm-3.1636-.7231a7.3941 7.3941 0 0 1 -4.0635-5.1814 7.3409 7.3409 0 0 1 6.44.9848 8.3541 8.3541 0 0 0 -2.3765 4.1966zm3.9507-4.1966a7.3409 7.3409 0 0 1 6.44-.9848 7.3941 7.3941 0 0 1 -4.0635 5.1814 8.3541 8.3541 0 0 0 -2.3765-4.1966zm-5.7871 13.4197a7.3688 7.3688 0 0 1 -3.1636-14.0269 8.3841 8.3841 0 0 0 4.83 5.8332c-.0262.27-.0413.5423-.0413.8187a8.3446 8.3446 0 0 0 2.5879 6.0447 7.3277 7.3277 0 0 1 -4.213 1.3303zm10 0a7.3277 7.3277 0 0 1 -4.2129-1.33 8.3446 8.3446 0 0 0 2.5879-6.045c0-.2764-.0151-.5491-.0413-.8187a8.3841 8.3841 0 0 0 4.83-5.8332 7.3688 7.3688 0 0 1 -3.1637 14.0269z"/> </svg>
