<svg viewBox="0 0 39 56" fill="currentColor" xmlns="http://www.w3.org/2000/svg" aria-hidden="true" focusable="false"><g transform="translate(0.5, 0)" fill-rule="evenodd"><g><path d="M33.75,16 L4.25,40 C3.0093,40 2,38.92 2,37.5926 L2,18.4074 C2,17.08 3.0093,16 4.25,16 L33.75,16 C34.9907,16 36,17.08 36,18.4074 L36,37.5926 C36,38.92 34.9907,40 33.75,40 L4.25,40 L33.75,16 Z M33.75,14 L4.25,14 C1.9028,14 0,15.9732 0,18.4074 L0,37.5926 C0,40.0267 1.9028,42 4.25,42 L33.75,42 C36.0972,42 38,40.0267 38,37.5926 L38,18.4074 C38,15.9732 36.0972,14 33.75,14 Z" fill-rule="nonzero"></path></g></g></svg>
