<svg viewBox="0 0 35 56" fill="currentColor" xmlns="http://www.w3.org/2000/svg" aria-hidden="true" focusable="false"><path fill="none" d="M0 0H35V56H0z"/><path d="M24 14H8c-2.206 0-4 1.794-4 4v20c0 2.206 1.794 4 4 4h16c2.206 0 4-1.794 4-4V18c0-2.206-1.794-4-4-4zm.663 7.321l-8.017 7.091a.999.999 0 0 1-1.304.019l-4.983-4.162a1 1 0 1 1 1.282-1.536l4.324 3.612 7.372-6.522a1 1 0 0 1 1.326 1.498zm9.308-2.169c-.353-.38-.816-.572-1.388-.572H32V18a8 8 0 0 0-8-8H8a8 8 0 0 0-8 8v20a8 8 0 0 0 8 8h16a8 8 0 0 0 8-8V26.476h.583c.572 0 1.035-.195 1.388-.587.353-.39.529-.9.529-1.53v-3.69c0-.63-.176-1.135-.53-1.516zM30 38c0 3.308-2.692 6-6 6H8c-3.308 0-6-2.692-6-6V18c0-3.308 2.692-6 6-6h16c3.308 0 6 2.692 6 6v20z"/></svg>
