<svg viewBox="0 0 25 35" fill="currentColor" xmlns="http://www.w3.org/2000/svg" aria-hidden="true" focusable="false"> <path d="m0 0h25v35h-25z" fill="none"/> <path d="m12.5 5c-6.9036 0-12.5 5.5964-12.5 12.5s5.5964 12.5 12.5 12.5 12.5-5.5964 12.5-12.5-5.5964-12.5-12.5-12.5zm-5.9064 16.6979c-1.6592 0-2.5074-.8483-2.5449-2.3079-.0125-.1498.0874-.262.2495-.262h1.1727c.1372 0 .212.0748.2369.2245.0748.5989.3743.9106.9108.9106s.7859-.2494.7859-.761c0-.4989-.2744-.736-1.0604-1.1351l-.4865-.2745c-1.2227-.6362-1.7091-1.2974-1.7091-2.4575 0-1.3848.9106-2.3329 2.4451-2.3329 1.5968 0 2.3578.9481 2.3953 2.2954 0 .1622-.0999.2495-.2495.2495h-1.0978c-.1498 0-.2246-.0748-.2495-.2245-.0999-.5864-.3369-.8857-.7985-.8857-.4366 0-.736.2993-.736.7235 0 .499.2369.7859.9855 1.1852l.4866.262c1.3098.6862 1.7839 1.235 1.7839 2.4202 0 1.4221-.9481 2.3702-2.52 2.3702zm5.9132-.0001c-1.9087 0-2.8943-1.4221-2.8943-4.1791 0-2.7445.9856-4.2166 2.8943-4.2166 1.8837 0 2.8816 1.472 2.8816 4.2166 0 2.757-.9979 4.1791-2.8816 4.1791zm5.9381.0001c-1.6592 0-2.52-.8483-2.5698-2.3079 0-.1498.1122-.262.2495-.262h1.1851c.1372 0 .2246.0748.2495.2245.0624.5989.3618.9106.8982.9106.549 0 .7859-.2494.7859-.761 0-.4989-.262-.7235-1.0603-1.1351l-.4741-.2745c-1.2225-.6487-1.7216-1.2974-1.7216-2.4575 0-1.3848.9108-2.3329 2.4576-2.3329 1.5844 0 2.3453.9481 2.3953 2.2954 0 .1622-.0999.2495-.2495.2495h-1.1228c-.1372 0-.1996-.0748-.2246-.2245-.0997-.5864-.3492-.8857-.7983-.8857-.4366 0-.7361.2993-.7361.7235 0 .499.2371.7859.9856 1.1852l.4865.262c1.3099.6862 1.7715 1.235 1.7715 2.4202 0 1.4221-.9355 2.3702-2.5074 2.3702zm-4.8217-4.0072c0 1.8837-.3743 2.6821-1.1104 2.6821-.761 0-1.1351-.7985-1.1351-2.6821s.3741-2.6947 1.1351-2.6947c.7361 0 1.1104.8109 1.1104 2.6947z"/> </svg>
