<svg viewBox="0 0 19 25" fill="currentColor" xmlns="http://www.w3.org/2000/svg" aria-hidden="true" focusable="false"> <path d="m0 0h19v25h-19z" fill="none"/> <path d="m18 13.333v4.167c0 1.9297-1.57 3.5-3.4996 3.5h-10c-1.9297 0-3.5-1.5703-3.5-3.5v-1.9532h-.5476c-.3298 0-.4167-.2245-.2336-.4808l1.0259-1.4563c.1465-.2107.3663-.2062.5129 0l1.0259 1.4608c.1786.2518.0916.4763-.2336.4763h-.5503v1.9532c0 1.3789 1.1215 2.5 2.5004 2.5h10c1.3789 0 2.5-1.1211 2.5-2.5v-4.167c0-.2764.2236-.5.5-.5s.4996.2236.4996.5zm.5472-3.8798h-.5472v-1.9532c0-1.9297-1.57-3.5-3.4996-3.5h-10c-1.9297 0-3.5 1.5703-3.5 3.5v4.167c0 .2764.2236.5.5.5s.4996-.2236.4996-.5v-4.167c0-1.3789 1.1215-2.5 2.5004-2.5h10c1.3789 0 2.5 1.1211 2.5 2.5v1.9532h-.5507c-.3251 0-.4122.2245-.2336.4762l1.0259 1.4609c.1465.2061.3663.2107.5129 0l1.0258-1.4563c.1832-.2563.0962-.4808-.2336-.4808zm-5.146-.4532h-8.2099c-.2903 0-.52.0796-.6891.2368-.1681.1572-.2522.391-.2522.7004v5.0549h-.3784c-.1378 0-.2551.0501-.3519.1483-.0968.0992-.1447.2171-.1447.3566 0 .1375.0479.2564.1447.3556.0968.0982.2141.1474.3519.1474h7.9784c-.129-.2063-.1965-.4421-.2014-.7073 0-.0491-.001-.1002-.0029-.1493-.001-.0511-.002-.0923-.002-.1434h-6.8937v-5.0756c0-.1415.0352-.2476.1056-.3183s.1759-.1061.3167-.1061h9.0333c-.0176-.2358-.1744-.5-.8045-.5zm-1.038 1.2181c.1505-.1454.3617-.2181.6334-.2181h2.0058c.2698 0 .4809.0727.6315.2181.1515.1464.2268.3497.2268.613v4.3427c0 .2613-.0743.4647-.2248.6091-.1486.1444-.3597.2171-.6334.2171h-2.0058c-.2717 0-.4829-.0727-.6334-.2171-.1486-.1444-.2238-.3478-.2238-.6091v-4.3427c0-.2633.0753-.4666.2238-.613zm.2519 4.9764c0 .1002.0244.1758.0733.2279.0479.0521.1202.0776.218.0776h2.1833c.0968 0 .1701-.0255.2199-.0776s.0743-.1277.0743-.2279v-4.385c0-.1002-.0244-.1768-.0743-.2299s-.1232-.0796-.2199-.0796h-2.1833c-.0977 0-.1701.0265-.218.0796-.0489.053-.0733.1297-.0733.2299zm1.0389-3.9911h.6911c.0557 0 .1036-.0196.1427-.0589.0401-.0403.0596-.0894.0596-.1483 0-.056-.0195-.1032-.0596-.1415-.0391-.0383-.087-.058-.1427-.058h-.6911c-.0586 0-.1065.0196-.1447.058s-.0567.0855-.0567.1415c0 .0589.0186.1081.0567.1483.0381.0393.086.0589.1447.0589zm-.2571 3.9489h1.1965c.1026 0 .1544-.0511.1544-.1552 0-.0432-.0156-.0796-.045-.1081-.0293-.0275-.0655-.0413-.1095-.0413h-1.1965c-.044 0-.0792.0138-.1056.0413-.0264.0285-.0391.0648-.0391.1081 0 .1041.0479.1552.1447.1552z"/> </svg>
